# xmcd
#
# Track frame offsets: 
#        150
#        34155
#        60092
#        94305
#        129150
#        158995
#        179867
#        207937
#        234660
#        258240
#        289377
#        306677
#        328000
#
# Disc length: 4613 seconds
#
# Revision: 1
# Processed by: cddbd v1.5.2PL0 Copyright (c) Steve Scherf et al.
# Submitted via: ExactAudioCopy v0.99pb3
#
DISCID=c312030d
DTITLE=Brooke Sofferman - Fine Whines
DYEAR=2007
DGENRE=Jazz
TTITLE0=Metric Monkulation
TTITLE1=Fine Whines
TTITLE2=Cold Train
TTITLE3=Forhermento
TTITLE4=Are You Sureious?
TTITLE5=Some Beach
TTITLE6=All Kashmir
TTITLE7=Only Two Dimensions
TTITLE8=Da Bull Stops Here
TTITLE9=Back In The Bidet
TTITLE10=Poor Glob
TTITLE11=Karmocity
TTITLE12=Imperial March
EXTD=
EXTT0=
EXTT1=
EXTT2=
EXTT3=
EXTT4=
EXTT5=
EXTT6=
EXTT7=
EXTT8=
EXTT9=
EXTT10=
EXTT11=
EXTT12=
PLAYORDER=
